<svg width="400" height="400" viewBox="0 0 400 400" fill="none" xmlns="http://www.w3.org/2000/svg">
<rect width="400" height="400" rx="8" fill="#EC003F"/>
<path d="M143.235 161.198C142.69 154.39 140.137 149.079 135.575 145.266C131.081 141.453 124.238 139.546 115.047 139.546C109.191 139.546 104.391 140.261 100.646 141.691C96.9692 143.053 94.2457 144.925 92.4754 147.308C90.7052 149.691 89.786 152.415 89.7179 155.479C89.5817 157.998 90.0243 160.279 91.0456 162.322C92.135 164.296 93.8372 166.101 96.1522 167.735C98.4672 169.301 101.429 170.731 105.038 172.024C108.646 173.318 112.936 174.475 117.906 175.497L135.064 179.174C146.639 181.625 156.546 184.859 164.785 188.876C173.023 192.893 179.764 197.625 185.007 203.072C190.25 208.451 194.097 214.511 196.548 221.252C199.067 227.993 200.361 235.346 200.429 243.312C200.361 257.066 196.922 268.709 190.113 278.241C183.305 287.774 173.568 295.025 160.904 299.996C148.308 304.966 133.158 307.451 115.455 307.451C97.2756 307.451 81.4112 304.762 67.8617 299.383C54.3803 294.004 43.8947 285.731 36.4051 274.565C28.9835 263.33 25.2386 248.964 25.1705 231.465H79.0962C79.4366 237.865 81.0367 243.244 83.8964 247.602C86.7561 251.96 90.7732 255.262 95.9479 257.509C101.191 259.756 107.421 260.879 114.638 260.879C120.698 260.879 125.77 260.13 129.856 258.632C133.941 257.134 137.039 255.058 139.15 252.402C141.26 249.747 142.35 246.717 142.418 243.312C142.35 240.112 141.294 237.321 139.252 234.938C137.277 232.486 134.009 230.308 129.447 228.401C124.885 226.427 118.723 224.588 110.961 222.886L90.1264 218.392C71.6065 214.375 57.0016 207.668 46.3118 198.272C35.6901 188.808 30.4133 175.905 30.4814 159.564C30.4133 146.287 33.9539 134.678 41.1031 124.737C48.3204 114.728 58.2953 106.932 71.0278 101.349C83.8283 95.7659 98.5012 92.9743 115.047 92.9743C131.932 92.9743 146.537 95.7999 158.861 101.451C171.185 107.103 180.683 115.069 187.356 125.35C194.097 135.563 197.501 147.513 197.569 161.198H143.235ZM316.4 148.125V188.978H213.042V148.125H316.4ZM233.06 110.541H289.437V254.547C289.437 256.726 289.811 258.564 290.56 260.062C291.309 261.492 292.467 262.581 294.033 263.33C295.599 264.011 297.607 264.352 300.058 264.352C301.761 264.352 303.735 264.147 305.982 263.739C308.297 263.33 309.999 262.99 311.089 262.717L319.259 302.345C316.74 303.094 313.131 304.013 308.433 305.102C303.803 306.192 298.288 306.906 291.888 307.247C278.951 307.928 268.091 306.6 259.308 303.264C250.524 299.859 243.92 294.514 239.494 287.229C235.069 279.944 232.924 270.82 233.06 259.858V110.541ZM353.867 307.092C348.812 307.092 344.476 305.327 340.859 301.797C337.286 298.224 335.521 293.888 335.565 288.79C335.521 283.822 337.286 279.573 340.859 276.044C344.476 272.514 348.812 270.749 353.867 270.749C358.66 270.749 362.887 272.514 366.547 276.044C370.251 279.573 372.125 283.822 372.169 288.79C372.125 292.189 371.232 295.282 369.489 298.071C367.789 300.817 365.567 303.017 362.822 304.673C360.076 306.285 357.091 307.092 353.867 307.092Z" fill="white"/>
</svg>
